<svg width="113" height="32" viewBox="0 0 113 32" fill="none" xmlns="http://www.w3.org/2000/svg">
  <path d="M8.5 2.5C8.5 1.11929 9.61929 0 11 0H21C22.3807 0 23.5 2.5V29.5C23.5 30.8807 22.3807 32 21 32H11C9.61929 32 8.5 30.8807 8.5 29.5V2.5Z" fill="#8B5CF6"/>
  <path d="M0 8.5C0 7.11929 1.11929 6 2.5 6H13.5C14.8807 6 16 7.11929 16 8.5V29.5C16 30.8807 14.8807 32 13.5 32H2.5C1.11929 32 0 30.8807 0 29.5V8.5Z" fill="#A78BFA"/>
  <path d="M16 14.5C16 13.1193 17.1193 12 18.5 12H29.5C30.8807 12 32 13.1193 32 14.5V29.5C32 30.8807 30.8807 32 29.5 32H18.5C17.1193 32 16 30.8807 16 29.5V14.5Z" fill="#C4B5FD"/>
  <text x="40" y="20" font-family="Arial, sans-serif" font-size="18" font-weight="bold" fill="#1F2937">YogaEasy</text>
</svg>